<?xml version="1.0" encoding="utf-8"?>
<!-- Generator: Adobe Illustrator 16.0.0, SVG Export Plug-In . SVG Version: 6.00 Build 0)  -->
<!DOCTYPE svg PUBLIC "-//W3C//DTD SVG 1.1//EN" "http://www.w3.org/Graphics/SVG/1.1/DTD/svg11.dtd">
<svg version="1.1" id="Layer_1" xmlns="http://www.w3.org/2000/svg" xmlns:xlink="http://www.w3.org/1999/xlink" x="0px" y="0px"
	 width="482.27px" height="431.341px" viewBox="0 0 482.27 431.341" enable-background="new 0 0 482.27 431.341"
	 xml:space="preserve">
<g>
	<path fill="#FFFFFF" d="M275.062,103.172c0-18.114-14.737-32.85-32.851-32.85c-18.115,0-32.853,14.736-32.853,32.85
		c0,6.906,2.153,13.312,5.808,18.608l-0.031,0.017l27.304,48.061l26.876-48.11l-0.025-0.014
		C272.924,116.447,275.062,110.058,275.062,103.172z M242.212,88.902c7.869,0,14.271,6.402,14.271,14.27
		c0,7.869-6.402,14.272-14.271,14.272c-7.87,0-14.273-6.403-14.273-14.272C227.938,95.304,234.342,88.902,242.212,88.902z"/>
	<polygon fill="none" stroke="#FFFFFF" stroke-width="19.005" stroke-miterlimit="10" points="156.762,63 242.27,13.632 327.777,63 
		327.777,177.182 242.27,226.549 156.762,177.182 	"/>
</g>
<g>
	<path fill="#FFFFFF" d="M34.307,429.909l-12.35-82.689l-0.716-5.547h-1.075v88.236H2.27V298.358h23.625l11.455,60.139l0.896,6.979
		h0.356l0.896-6.979l11.455-60.139h23.625v131.551H56.68v-88.236h-1.074l-0.716,5.547l-12.35,82.689H34.307z"/>
	<path fill="#FFFFFF" d="M83.522,429.909l19.867-131.551h23.625l19.867,131.551h-18.792l-3.58-26.846h-18.615l-3.579,26.846H83.522z
		 M116.277,341.136l-0.539-3.4h-1.073l-0.538,3.4l-5.548,41.523h13.244L116.277,341.136z"/>
	<path fill="#FFFFFF" d="M155.828,298.358h19.331c8.412,0,16.824,2.147,23.266,8.233c6.444,6.087,10.739,16.108,10.739,31.144
		c0,15.033-4.295,24.877-10.739,30.963c-6.441,6.086-14.854,8.592-23.266,8.592v52.619h-19.331V298.358z M175.159,357.603
		c5.905,0,9.664-1.074,11.812-4.117c2.147-2.863,2.686-7.697,2.686-15.033c0-7.34-0.538-12.531-2.686-15.752
		s-5.906-4.654-11.812-4.654V357.603z"/>
	<path fill="#FFFFFF" d="M249.79,345.608v-20.223c0-3.58-0.718-6.086-2.507-8.232c-0.896-0.896-2.327-1.432-3.938-1.432
		c-3.399,0-5.012,2.504-5.728,4.83c-0.537,1.432-0.716,3.043-0.716,4.834v79.107c0,3.76,0.895,6.266,2.685,8.234
		c0.895,0.895,2.147,1.433,3.759,1.433c3.4,0,5.013-2.149,5.727-4.833c0.538-1.253,0.718-2.863,0.718-4.834v-23.805h-7.698v-16.285
		h27.026v65.506h-11.453l-2.326-6.264c-3.581,4.475-8.771,7.695-15.036,7.695c-6.264,0-10.56-1.61-13.781-4.474
		c-3.222-2.684-5.369-6.085-6.801-9.665c-1.611-4.117-2.327-8.949-2.147-14.318v-77.498c0.179-5.189,1.252-10.023,3.222-14.141
		c1.609-3.579,3.937-7.158,7.517-9.844c3.579-2.684,8.591-4.475,15.034-4.475c6.444,0,11.275,1.791,14.856,4.475
		c3.578,2.686,6.084,6.265,7.694,9.844c1.97,4.117,3.044,8.951,3.222,14.141v20.223H249.79z"/>
	<path fill="#FFFFFF" d="M283.254,298.358h44.206v19.867h-24.877v34.543h17.897v21.119h-17.897v36.155h24.877v19.866h-44.206
		V298.358z"/>
	<path fill="#FFFFFF" d="M338.198,298.358h19.33v131.551h-19.33V298.358z"/>
	<path fill="#FFFFFF" d="M403.88,333.618c0-4.295-0.178-9.127-1.432-12.887c-1.254-3.578-3.223-6.085-6.265-6.085
		c-5.011,0.18-6.622,5.37-6.622,13.065c0,4.475,1.971,9.129,4.834,14.139c2.863,5.014,6.621,10.203,10.379,15.752
		c4.475,6.621,8.949,13.422,12.35,20.045s5.727,13.424,5.727,20.582c0,8.771-1.432,17.004-5.547,23.089
		c-4.117,6.085-10.738,10.022-21.3,10.022c-12.349,0-19.329-4.652-23.267-11.812s-4.833-16.646-4.833-26.489l18.974-1.789
		c0,5.547,0.178,11.096,1.609,15.213c1.254,4.295,3.4,7.158,7.517,7.158c5.728,0,7.876-6.086,7.876-14.498
		c0-4.295-2.148-9.307-5.013-14.496c-1.608-2.506-3.22-5.191-5.009-7.875c-3.76-5.369-7.875-11.455-12.172-18.078
		c-4.295-6.621-7.518-13.422-9.487-20.402c-1.073-3.402-1.608-6.98-1.608-10.561c0-7.16,1.608-14.855,5.726-20.762
		c4.118-5.727,10.381-9.844,19.511-10.023c11.632-0.179,18.434,4.654,22.193,11.635c3.758,7.16,4.83,15.93,4.83,23.266
		L403.88,333.618z"/>
	<path fill="#FFFFFF" d="M426.43,318.226v-19.867h55.84v19.867h-18.256v111.684h-19.328V318.226H426.43z"/>
</g>
</svg>
